<svg width="24" height="24" viewBox="0 0 24 24" fill="none" xmlns="http://www.w3.org/2000/svg">
<g clip-path="url(#clip0_46_226)">
<path d="M17.2095 16.5C17.0407 14.9792 16.3603 13.5609 15.2797 12.4776C14.1991 11.3942 12.7825 10.7102 11.2621 10.5376C9.74176 10.365 8.20786 10.714 6.91191 11.5276C5.61597 12.3411 4.63487 13.5708 4.12948 15.015C2.97139 15.1098 1.89486 15.6489 1.12523 16.5194C0.355598 17.3899 -0.0474667 18.5244 0.000406552 19.6854C0.0482799 20.8464 0.54338 21.9438 1.38207 22.7481C2.22076 23.5523 3.33802 24.0009 4.49998 24H17.25C18.2445 24 19.1984 23.6049 19.9016 22.9017C20.6049 22.1984 21 21.2446 21 20.25C21 19.2555 20.6049 18.3016 19.9016 17.5984C19.1984 16.8951 18.2445 16.5 17.25 16.5H17.2095Z" fill="#454545"/>
<path d="M16.929 2.66701C17.0153 2.538 17.0593 2.38542 17.0552 2.2303C17.0511 2.07519 16.9989 1.92518 16.9059 1.80094C16.813 1.67671 16.6837 1.58437 16.5361 1.53665C16.3884 1.48893 16.2296 1.48818 16.0815 1.53451C14.5284 2.0209 13.1975 3.04117 12.3245 4.41468C11.4515 5.78819 11.0927 7.42632 11.3115 9.03901C11.8481 9.09118 12.3781 9.19619 12.894 9.35251C12.6624 8.36537 12.7132 7.33297 13.0405 6.3733C13.3678 5.41362 13.9585 4.56539 14.745 3.92551C14.4852 4.92724 14.4545 5.97463 14.655 6.98989C14.8555 8.00515 15.2821 8.9622 15.9032 9.78996C16.5243 10.6177 17.324 11.2949 18.2427 11.7713C19.1614 12.2476 20.1756 12.5109 21.21 12.5415C20.227 13.2247 19.0438 13.5595 17.8485 13.4925C18.0915 13.968 18.291 14.4705 18.4395 14.9925C19.5225 14.9464 20.5794 14.6452 21.524 14.1135C22.4686 13.5817 23.2743 12.8345 23.8755 11.9325C23.9618 11.8035 24.0058 11.6509 24.0017 11.4958C23.9976 11.3407 23.9454 11.1907 23.8524 11.0664C23.7595 10.9422 23.6302 10.8499 23.4826 10.8022C23.3349 10.7544 23.1761 10.7537 23.028 10.8C21.9641 11.134 20.8228 11.1297 19.7614 10.7877C18.7 10.4458 17.7707 9.78303 17.1018 8.89081C16.4329 7.99859 16.0572 6.92085 16.0265 5.80615C15.9959 4.69144 16.3117 3.59467 16.9305 2.66701H16.929Z" fill="#454545"/>
</g>
<defs>
<clipPath id="clip0_46_226">
<rect width="24" height="24" fill="white"/>
</clipPath>
</defs>
</svg>
