<svg width="19" height="19" viewBox="0 0 19 19" fill="none" xmlns="http://www.w3.org/2000/svg">
<g clip-path="url(#clip0_33_2)">
<path fill-rule="evenodd" clip-rule="evenodd" d="M0.75 9.54885C0.75 13.8991 3.90948 17.5165 8.04167 18.25V11.9303H5.85417V9.5H8.04167V7.55531C8.04167 5.36781 9.45115 4.15302 11.4447 4.15302C12.0761 4.15302 12.7572 4.25 13.3886 4.34698V6.58333H12.2708C11.2011 6.58333 10.9583 7.11781 10.9583 7.79885V9.5H13.2917L12.903 11.9303H10.9583V18.25C15.0905 17.5165 18.25 13.8998 18.25 9.54885C18.25 4.70938 14.3125 0.75 9.5 0.75C4.6875 0.75 0.75 4.70938 0.75 9.54885Z" fill="#E5E5E5" fill-opacity="0.7"/>
</g>
<defs>
<clipPath id="clip0_33_2">
<rect width="17.5" height="17.5" fill="white" transform="translate(0.75 0.75)"/>
</clipPath>
</defs>
</svg>
