<svg width="19" height="19" viewBox="0 0 19 19" fill="none" xmlns="http://www.w3.org/2000/svg">
<path fill-rule="evenodd" clip-rule="evenodd" d="M6.19323 1.52728C7.04855 1.48791 7.32125 1.47916 9.5 1.47916C11.6788 1.47916 11.9515 1.48864 12.806 1.52728C13.6606 1.56593 14.244 1.70228 14.7544 1.89989C15.2889 2.10186 15.7738 2.41759 16.1748 2.82593C16.5831 3.22624 16.8981 3.71041 17.0994 4.24561C17.2977 4.75603 17.4333 5.33936 17.4727 6.19249C17.5121 7.04926 17.5208 7.32197 17.5208 9.49999C17.5208 11.6787 17.5114 11.9514 17.4727 12.8068C17.4341 13.6599 17.2977 14.2432 17.0994 14.7536C16.8981 15.2889 16.5826 15.7739 16.1748 16.1748C15.7738 16.5831 15.2889 16.8981 14.7544 17.0994C14.244 17.2977 13.6606 17.4333 12.8075 17.4727C11.9515 17.5121 11.6788 17.5208 9.5 17.5208C7.32125 17.5208 7.04855 17.5113 6.19323 17.4727C5.34011 17.4341 4.75678 17.2977 4.24636 17.0994C3.71109 16.8981 3.22612 16.5826 2.82521 16.1748C2.41716 15.7742 2.10138 15.2895 1.8999 14.7544C1.7023 14.2439 1.56667 13.6606 1.5273 12.8075C1.48792 11.9507 1.47917 11.678 1.47917 9.49999C1.47917 7.32124 1.48865 7.04853 1.5273 6.19395C1.56594 5.33936 1.7023 4.75603 1.8999 4.24561C2.10168 3.71047 2.4177 3.22574 2.82594 2.8252C3.22628 2.41723 3.71077 2.10146 4.24563 1.89989C4.75605 1.70228 5.33938 1.56666 6.1925 1.52728H6.19323ZM12.7411 2.97103C11.8953 2.93239 11.6416 2.92436 9.5 2.92436C7.35844 2.92436 7.10469 2.93239 6.25886 2.97103C5.47646 3.00676 5.05209 3.13728 4.76917 3.24739C4.39511 3.39322 4.12751 3.56603 3.84678 3.84676C3.58066 4.10565 3.37587 4.42082 3.2474 4.76916C3.1373 5.05207 3.00678 5.47645 2.97105 6.25884C2.9324 7.10468 2.92438 7.35843 2.92438 9.49999C2.92438 11.6416 2.9324 11.8953 2.97105 12.7411C3.00678 13.5235 3.1373 13.9479 3.2474 14.2308C3.37573 14.5786 3.58063 14.8944 3.84678 15.1532C4.10563 15.4194 4.42136 15.6243 4.76917 15.7526C5.05209 15.8627 5.47646 15.9932 6.25886 16.0289C7.10469 16.0676 7.35771 16.0756 9.5 16.0756C11.6423 16.0756 11.8953 16.0676 12.7411 16.0289C13.5235 15.9932 13.9479 15.8627 14.2308 15.7526C14.6049 15.6068 14.8725 15.4339 15.1532 15.1532C15.4194 14.8944 15.6243 14.5786 15.7526 14.2308C15.8627 13.9479 15.9932 13.5235 16.029 12.7411C16.0676 11.8953 16.0756 11.6416 16.0756 9.49999C16.0756 7.35843 16.0676 7.10468 16.029 6.25884C15.9932 5.47645 15.8627 5.05207 15.7526 4.76916C15.6068 4.39509 15.434 4.12749 15.1532 3.84676C14.8943 3.58067 14.5792 3.37587 14.2308 3.24739C13.9479 3.13728 13.5235 3.00676 12.7411 2.97103ZM8.47553 11.9726C9.04767 12.2108 9.68476 12.2429 10.278 12.0635C10.8712 11.8842 11.3837 11.5044 11.7281 10.9891C12.0724 10.4738 12.2271 9.855 12.1659 9.2383C12.1046 8.62159 11.8312 8.04528 11.3922 7.6078C11.1124 7.32815 10.774 7.11402 10.4015 6.98083C10.029 6.84763 9.63157 6.79869 9.23787 6.83752C8.84416 6.87635 8.46397 7.00199 8.12465 7.2054C7.78534 7.4088 7.49534 7.68491 7.27554 8.01384C7.05574 8.34277 6.9116 8.71635 6.85351 9.10767C6.79541 9.49899 6.8248 9.89833 6.93957 10.2769C7.05433 10.6555 7.25161 11.004 7.5172 11.2972C7.78279 11.5904 8.11009 11.8211 8.47553 11.9726ZM6.5848 6.58478C6.96763 6.20195 7.42211 5.89827 7.92231 5.69109C8.4225 5.4839 8.9586 5.37726 9.5 5.37726C10.0414 5.37726 10.5775 5.4839 11.0777 5.69109C11.5779 5.89827 12.0324 6.20195 12.4152 6.58478C12.798 6.96761 13.1017 7.4221 13.3089 7.92229C13.5161 8.42248 13.6227 8.95859 13.6227 9.49999C13.6227 10.0414 13.5161 10.5775 13.3089 11.0777C13.1017 11.5779 12.798 12.0324 12.4152 12.4152C11.6421 13.1884 10.5934 13.6227 9.5 13.6227C8.40659 13.6227 7.35796 13.1884 6.5848 12.4152C5.81164 11.642 5.37728 10.5934 5.37728 9.49999C5.37728 8.40657 5.81164 7.35794 6.5848 6.58478ZM14.5371 5.99124C14.632 5.90175 14.7079 5.79413 14.7604 5.67476C14.813 5.55539 14.841 5.4267 14.8429 5.29629C14.8448 5.16589 14.8205 5.03643 14.7715 4.91558C14.7225 4.79473 14.6497 4.68495 14.5575 4.59273C14.4653 4.50051 14.3555 4.42773 14.2346 4.3787C14.1138 4.32967 13.9843 4.30539 13.8539 4.30729C13.7235 4.30919 13.5948 4.33724 13.4754 4.38977C13.3561 4.4423 13.2485 4.51825 13.159 4.61311C12.9849 4.79762 12.8896 5.04268 12.8933 5.29629C12.897 5.5499 12.9994 5.79209 13.1788 5.97144C13.3581 6.15079 13.6003 6.25318 13.8539 6.25687C14.1075 6.26057 14.3526 6.16528 14.5371 5.99124Z" fill="#E5E5E5" fill-opacity="0.7"/>
</svg>
