<svg width="19" height="19" viewBox="0 0 19 19" fill="none" xmlns="http://www.w3.org/2000/svg">
<path d="M17.9897 4.34988C17.3808 4.61967 16.7268 4.80196 16.0392 4.88436C16.7486 4.45983 17.2794 3.79168 17.5325 3.00457C16.8659 3.4005 16.1364 3.67919 15.3756 3.82853C14.864 3.28228 14.1864 2.92022 13.4479 2.79856C12.7095 2.6769 11.9515 2.80244 11.2917 3.15569C10.6319 3.50894 10.1072 4.07014 9.79907 4.75216C9.49091 5.43419 9.41654 6.19887 9.5875 6.92748C8.23685 6.85967 6.91556 6.50861 5.70937 5.8971C4.50318 5.28559 3.43905 4.42729 2.58604 3.3779C2.29437 3.88103 2.12667 4.46436 2.12667 5.08561C2.12634 5.64488 2.26406 6.19558 2.52762 6.68885C2.79117 7.18213 3.17241 7.60272 3.6375 7.91332C3.09812 7.89616 2.57064 7.75041 2.09896 7.48821V7.53196C2.0989 8.31636 2.37023 9.07661 2.8669 9.68373C3.36357 10.2908 4.055 10.7074 4.82385 10.8628C4.32349 10.9982 3.79889 11.0182 3.28969 10.9211C3.50661 11.5961 3.92916 12.1863 4.49818 12.6091C5.0672 13.0319 5.75421 13.2663 6.46302 13.2793C5.25977 14.2238 3.77377 14.7362 2.24406 14.7339C1.97309 14.734 1.70235 14.7182 1.43323 14.6865C2.98597 15.6849 4.79348 16.2148 6.63948 16.2127C12.8884 16.2127 16.3046 11.0371 16.3046 6.54832C16.3046 6.40248 16.3009 6.25519 16.2944 6.10936C16.9589 5.62882 17.5324 5.03376 17.9882 4.35207L17.9897 4.34988Z" fill="#E5E5E5" fill-opacity="0.7"/>
</svg>
