<svg width="19" height="19" viewBox="0 0 19 19" fill="none" xmlns="http://www.w3.org/2000/svg">
<g clip-path="url(#clip0_4_311)">
<path d="M16.112 2.45405C15.6593 2.05666 13.8256 0.779159 9.74199 0.762388C9.74199 0.762388 4.92341 0.486034 2.57613 2.5503C1.27047 3.80155 0.813191 5.63395 0.760691 7.90676C0.708191 10.1796 0.649604 14.4394 4.93406 15.5973H4.93787L4.93406 17.3611C4.93406 17.3611 4.90591 18.0757 5.39591 18.2194C5.98786 18.3973 6.33786 17.8533 6.90471 17.2685C7.21515 16.947 7.64276 16.4759 7.96765 16.1165C9.8295 16.2817 11.7071 16.1444 13.5212 15.7103L13.4071 15.7336C13.9991 15.5492 17.3484 15.1386 17.8901 10.8796C18.4562 6.4827 17.6208 3.70895 16.112 2.45405ZM16.6081 10.5587C16.1462 14.1134 13.433 14.3395 12.9338 14.4926C11.8443 14.758 10.5934 14.9097 9.30526 14.9097C8.93547 14.9097 8.56873 14.8973 8.2058 14.8725L8.2545 14.8754C8.2545 14.8754 6.3995 17.0184 5.822 17.5755C5.6333 17.7563 5.42558 17.7418 5.42939 17.3808C5.42939 17.1453 5.44384 14.451 5.44384 14.451C1.81678 13.4871 2.02678 9.85874 2.06939 7.96364C2.112 6.06853 2.4833 4.51103 3.58884 3.46541C5.57623 1.73947 9.66743 1.99541 9.66743 1.99541C13.1241 2.00926 14.779 3.00749 15.164 3.34218C16.4376 4.38853 17.0867 6.89103 16.6081 10.558V10.5587ZM11.6541 7.79666V7.80687C11.6525 7.86365 11.6282 7.91768 11.5862 7.9578C11.5442 7.99791 11.4878 8.02106 11.4286 8.02247C11.3693 8.02387 11.3117 8.00342 11.2678 7.96534C11.2238 7.92725 11.1967 7.87444 11.1922 7.8178V7.81708C11.2077 7.66484 11.1885 7.51119 11.136 7.36674C11.0836 7.22228 10.999 7.09047 10.8882 6.98038C10.7773 6.8703 10.6429 6.78457 10.4942 6.72911C10.3454 6.67365 10.1859 6.64979 10.0266 6.65916H10.0296C9.97047 6.65477 9.91536 6.62878 9.87566 6.58657C9.83595 6.54435 9.81468 6.48913 9.81624 6.43231C9.81781 6.3755 9.84208 6.32143 9.88405 6.28128C9.92603 6.24112 9.98249 6.21795 10.0418 6.21656H10.0547H10.054L10.1065 6.21583C10.3189 6.21576 10.529 6.25754 10.7239 6.33857C10.9188 6.4196 11.0942 6.53816 11.2392 6.68688C11.3843 6.8356 11.4959 7.01131 11.5671 7.2031C11.6384 7.39489 11.6677 7.59866 11.6533 7.80176V7.79739L11.6541 7.79666ZM12.3776 8.18385C12.4134 6.73426 11.4684 5.59968 9.67428 5.47281C9.64315 5.47187 9.61253 5.46492 9.58427 5.45238C9.55601 5.43983 9.53069 5.42194 9.50982 5.39979C9.48895 5.37763 9.47296 5.35167 9.46281 5.32344C9.45267 5.29522 9.44858 5.26533 9.45078 5.23556C9.45299 5.20578 9.46144 5.17674 9.47564 5.15018C9.48984 5.12361 9.5095 5.10007 9.53342 5.08096C9.55735 5.06185 9.58506 5.04757 9.61488 5.03897C9.64471 5.03038 9.67604 5.02764 9.707 5.03093H9.70623H9.71917C10.145 5.03092 10.5662 5.11431 10.9572 5.27599C11.3481 5.43768 11.7004 5.67423 11.9925 5.97114C12.2846 6.26804 12.5102 6.61903 12.6556 7.00255C12.801 7.38606 12.8631 7.79401 12.838 8.20135L12.8387 8.19333C12.8347 8.24984 12.8082 8.30271 12.7647 8.34109C12.7212 8.37947 12.664 8.40043 12.6049 8.39969C12.5458 8.39894 12.4893 8.37654 12.4469 8.33708C12.4044 8.29761 12.3794 8.24409 12.3769 8.18749V8.18166L12.3776 8.18385ZM14.0516 8.64249V8.64395C14.0485 8.70047 14.023 8.75372 13.9802 8.79279C13.9375 8.83185 13.8808 8.85377 13.8217 8.85405C13.7627 8.85433 13.7057 8.83295 13.6626 8.79429C13.6194 8.75563 13.5934 8.70263 13.5897 8.64614C13.5715 5.85926 11.632 4.34187 9.28167 4.32583C9.25139 4.32583 9.22141 4.32011 9.19344 4.30901C9.16547 4.2979 9.14006 4.28163 9.11865 4.26111C9.09724 4.2406 9.08026 4.21624 9.06867 4.18944C9.05709 4.16263 9.05113 4.1339 9.05113 4.10489C9.05113 4.07587 9.05709 4.04714 9.06867 4.02034C9.08026 3.99353 9.09724 3.96918 9.11865 3.94866C9.14006 3.92815 9.16547 3.91187 9.19344 3.90077C9.22141 3.88967 9.25139 3.88395 9.28167 3.88395C11.9135 3.90145 14.0287 5.64197 14.05 8.64176L14.0516 8.64249ZM13.6521 11.9952V12.0018C13.2671 12.6515 12.5466 13.369 11.8047 13.14L11.7979 13.1298C10.4752 12.6633 9.23545 12.0045 8.1221 11.1763L8.1533 11.1982C7.5993 10.7767 7.09673 10.2965 6.65515 9.76687L6.64069 9.74864C6.24086 9.2663 5.88403 8.75262 5.57395 8.21301L5.54352 8.15541C5.17666 7.57581 4.87251 6.96182 4.6358 6.32301L4.61297 6.25155C4.37406 5.54062 5.11895 4.8501 5.80069 4.48114H5.80754C5.94166 4.39886 6.10272 4.36684 6.25992 4.39118C6.41713 4.41553 6.55946 4.49454 6.65971 4.61312L6.66047 4.61458C6.66047 4.61458 7.10254 5.11989 7.292 5.36999C7.47004 5.6026 7.70971 5.9752 7.83373 6.18301C7.92711 6.32501 7.96512 6.49407 7.94103 6.66032C7.91694 6.82657 7.83232 6.97931 7.7021 7.09155L7.70134 7.09228L7.27373 7.42041C7.20706 7.48208 7.15554 7.55719 7.1229 7.6403C7.09027 7.72341 7.07733 7.81244 7.08504 7.90093V7.89874C7.29677 8.57492 7.67892 9.19075 8.19775 9.69191C8.71659 10.1931 9.35616 10.5641 10.06 10.7724L10.092 10.7804C10.1839 10.7874 10.2762 10.7748 10.3625 10.7437C10.4488 10.7126 10.5268 10.6636 10.5911 10.6003L10.9335 10.1905C11.0511 10.0652 11.2113 9.98385 11.3856 9.96102C11.5599 9.93819 11.737 9.97533 11.8854 10.0658L11.8823 10.0644C12.5009 10.402 13.0358 10.7731 13.5235 11.1938L13.5151 11.1866C13.6389 11.2811 13.7212 11.4166 13.746 11.5663C13.7708 11.7161 13.7362 11.8693 13.6491 11.9959L13.6506 11.9937L13.6521 11.9952Z" fill="#E5E5E5" fill-opacity="0.7"/>
</g>
<defs>
<clipPath id="clip0_4_311">
<rect width="17.5" height="17.5" fill="white" transform="translate(0.75 0.75)"/>
</clipPath>
</defs>
</svg>
