<svg width="19" height="19" viewBox="0 0 19 19" fill="none" xmlns="http://www.w3.org/2000/svg">
<g clip-path="url(#clip0_33_8)">
<path d="M7.66906 0.75292L8.20063 0.750732H10.7994L11.3317 0.75292L11.9981 0.760212L12.3139 0.765316L12.6186 0.773337L12.9125 0.783545L13.1954 0.795212L13.4681 0.810524L13.7306 0.828753L13.9822 0.850628L14.225 0.874691C15.4937 1.01761 16.3636 1.32386 17.0199 1.98011C17.6761 2.63636 17.9824 3.50552 18.1253 4.775L18.1501 5.01782L18.1713 5.27011L18.1895 5.53261L18.2041 5.80459L18.2223 6.23334L18.231 6.5323L18.2405 7.00188L18.2471 7.66907L18.25 8.38365L18.2493 10.7994L18.2471 11.3317L18.2398 11.9981L18.2347 12.3139L18.2267 12.6187L18.2165 12.9125L18.2048 13.1954L18.1895 13.4681L18.1713 13.7306L18.1494 13.9822L18.1253 14.225C17.9824 15.4938 17.6761 16.3636 17.0199 17.0199C16.3636 17.6761 15.4945 17.9824 14.225 18.1253L13.9822 18.1501L13.7299 18.1713L13.4674 18.1895L13.1954 18.2041L12.7667 18.2223L12.4677 18.231L11.9981 18.2405L11.3309 18.2471L10.6164 18.25L8.20063 18.2493L7.66833 18.2471L7.00188 18.2398L6.68615 18.2347L6.38135 18.2267L6.0875 18.2165L5.80458 18.2048L5.53188 18.1895L5.26938 18.1713L5.01781 18.1494L4.775 18.1253C3.50625 17.9824 2.63635 17.6761 1.9801 17.0199C1.32385 16.3636 1.0176 15.4945 0.874688 14.225L0.849896 13.9822L0.82875 13.7299L0.810521 13.4674L0.795938 13.1954L0.777708 12.7667L0.768958 12.4677L0.759479 11.9981L0.752917 11.3309L0.75 10.6164L0.750729 8.20063L0.752917 7.66834L0.760208 7.00188L0.765313 6.68615L0.773333 6.38136L0.783542 6.0875L0.795208 5.80459L0.810521 5.53188L0.82875 5.26938L0.850625 5.01782L0.874688 4.775C1.0176 3.50625 1.32385 2.63636 1.9801 1.98011C2.63635 1.32386 3.50552 1.01761 4.775 0.874691L5.01781 0.849899L5.2701 0.828753L5.5326 0.810524L5.80458 0.795941L6.23333 0.777712L6.53229 0.768962L7.00188 0.759482L7.66906 0.75292ZM5.70104 6.07292H3.70313C3.79792 10.6229 6.07292 13.3573 10.0615 13.3573H10.2875V10.7542C11.7531 10.9 12.8615 11.9719 13.3062 13.3573H15.3771C14.8083 11.2865 13.3135 10.1417 12.3802 9.70417C13.3135 9.16459 14.626 7.85209 14.9396 6.07292H13.0583C12.65 7.51667 11.4396 8.82917 10.2875 8.95313V6.07292H8.40625V11.1188C7.23958 10.8271 5.76667 9.4125 5.70104 6.07292Z" fill="white"/>
</g>
<defs>
<clipPath id="clip0_33_8">
<rect width="17.5" height="17.5" fill="white" transform="translate(0.75 0.75)"/>
</clipPath>
</defs>
</svg>
