<svg width="35" height="35" viewBox="0 0 35 35" fill="none" xmlns="http://www.w3.org/2000/svg">
<path d="M7.65625 3.28125L12.3222 14.6125C9.52656 16.3494 7.65625 19.4403 7.65625 22.9688C7.65625 28.3959 12.0717 32.8125 17.5 32.8125C22.9283 32.8125 27.3438 28.3959 27.3438 22.9688C27.3438 19.4414 25.4734 16.3505 22.6778 14.6125L27.3438 3.28125H24.9791L20.7003 13.6697C19.9715 13.4159 19.2152 13.2496 18.4472 13.1742L22.517 3.28125H20.1523L16.0486 13.2453C15.4534 13.3325 14.8676 13.4745 14.2986 13.6697L10.0209 3.28125H7.65625ZM12.4819 3.28125L15.2611 10.0341L16.4445 7.16078L14.8477 3.28125H12.4819ZM17.5 15.3125C21.7208 15.3125 25.1562 18.7469 25.1562 22.9688C25.1562 27.1906 21.7208 30.625 17.5 30.625C13.2792 30.625 9.84375 27.1906 9.84375 22.9688C9.84375 18.7469 13.2792 15.3125 17.5 15.3125ZM17.5 18.7709L16.2225 21.6366L13.125 21.9756L15.4437 24.0581L14.7908 27.1316L17.5 25.5697L20.2092 27.1338L19.5573 24.0603L21.875 21.9745L18.7775 21.6355L17.5 18.7698V18.7709Z" fill="#F48400"/>
</svg>
